#N canvas 95 162 309 348 10;
#X obj 96 182 triangle~;
#X obj 96 97 random 20;
#X obj 96 129 * 100;
#X obj 96 247 dac~;
#X obj 63 214 tgl 15 0 empty empty empty 17 7 0 10 -262144 -1 -1 0
1;
#X floatatom 55 158 5 0 0 0 - - -;
#X obj 96 214 *~ 0.1;
#X obj 96 42 r bleep;
#X obj 179 93 delay 100;
#X msg 179 129 0;
#X obj 96 68 t b b;
#X connect 0 0 6 0;
#X connect 1 0 2 0;
#X connect 2 0 0 0;
#X connect 2 0 5 0;
#X connect 4 0 3 0;
#X connect 6 0 3 0;
#X connect 6 0 3 1;
#X connect 7 0 10 0;
#X connect 8 0 9 0;
#X connect 9 0 0 0;
#X connect 10 0 1 0;
#X connect 10 1 8 0;
