#N canvas 237 56 951 636 10;
#X obj 160 278 dac~;
#X obj 160 103 loadbang;
#X obj 160 213 osc~;
#X obj 160 128 random 10;
#X obj 160 184 * 100;
#X obj 160 155 + 2;
#X obj 160 243 *~ 0.8;
#X connect 1 0 3 0;
#X connect 2 0 6 0;
#X connect 3 0 5 0;
#X connect 4 0 2 0;
#X connect 5 0 4 0;
#X connect 6 0 0 0;
#X connect 6 0 0 1;
