#N canvas 497 40 951 636 10;
#X obj 218 280 dac~;
#X obj 218 105 loadbang;
#X obj 218 215 osc~;
#X obj 218 186 * 100;
#X obj 218 130 random 6;
#X obj 218 157 + 3;
#X obj 218 245 *~;
#X text 345 218 this osc controls the volume;
#X obj 288 217 osc~ 0.2;
#X text 39 217 this osc is the pitched tone;
#X connect 1 0 4 0;
#X connect 2 0 6 0;
#X connect 3 0 2 0;
#X connect 4 0 5 0;
#X connect 5 0 3 0;
#X connect 6 0 0 0;
#X connect 6 0 0 1;
#X connect 8 0 6 1;
