#N canvas 826 232 775 712 10;
#X text 136 64 Subscribe to receive all messages;
#X obj 483 303 random 20;
#X obj 483 335 * 100;
#X obj 483 274 t b 0;
#X obj 483 453 dac~;
#X obj 450 420 tgl 15 0 empty empty empty 17 7 0 10 -262144 -1 -1 0
1;
#X floatatom 442 364 5 0 0 0 - - -, f 5;
#X obj 566 299 pipe 100;
#X obj 483 420 *~ 0.1;
#X obj 519 120 oscparse;
#X obj 519 92 netreceive -u -b;
#X msg 519 65 listen 9001;
#X obj 519 147 print RECEIVED;
#X obj 483 196 route bleep;
#X obj 148 203 netsend -u -b;
#X obj 71 136 list prepend send;
#X obj 71 161 list trim;
#X obj 483 388 phasor~;
#X msg 207 136 connect localhost 9000;
#X obj 71 88 oscformat sys subscribe;
#X msg 71 64 9001 /;
#X obj 483 170 list trim;
#X obj 324 -25 loadbang;
#X connect 1 0 2 0;
#X connect 2 0 6 0;
#X connect 2 0 17 0;
#X connect 3 0 1 0;
#X connect 3 1 7 0;
#X connect 5 0 4 0;
#X connect 7 0 17 0;
#X connect 8 0 4 0;
#X connect 8 0 4 1;
#X connect 9 0 12 0;
#X connect 9 0 21 0;
#X connect 10 0 9 0;
#X connect 11 0 10 0;
#X connect 13 0 3 0;
#X connect 15 0 16 0;
#X connect 16 0 14 0;
#X connect 17 0 8 0;
#X connect 18 0 14 0;
#X connect 19 0 15 0;
#X connect 20 0 19 0;
#X connect 21 0 13 0;
#X connect 22 0 20 0;
#X connect 22 0 11 0;
