#N canvas 95 162 775 440 10;
#X declare -lib mrpeach;
#X obj 34 10 import mrpeach;
#X obj 58 322 udpsend;
#X msg 58 81 connect localhost 9000;
#X obj 30 57 loadbang;
#X obj 584 37 udpreceive 9001;
#X obj 584 69 unpackOSC;
#X obj 584 100 print RECEIVED;
#X obj 30 175 packOSC;
#X text 43 125 Subscribe to receive all messages;
#X msg 30 148 /sys/subscribe 9001 /;
#X obj 453 148 OSCroute /bleep;
#X obj 453 288 triangle~;
#X obj 453 203 random 20;
#X obj 453 235 * 100;
#X obj 453 174 t b 0;
#X obj 453 353 dac~;
#X obj 420 320 tgl 15 0 empty empty empty 17 7 0 10 -262144 -1 -1 1
1;
#X floatatom 412 264 5 0 0 0 - - -;
#X obj 536 199 pipe 100;
#X obj 453 320 *~ 0.1;
#X connect 2 0 1 0;
#X connect 3 0 2 0;
#X connect 3 0 9 0;
#X connect 4 0 5 0;
#X connect 5 0 6 0;
#X connect 5 0 10 0;
#X connect 7 0 1 0;
#X connect 9 0 7 0;
#X connect 10 0 14 0;
#X connect 11 0 19 0;
#X connect 12 0 13 0;
#X connect 13 0 11 0;
#X connect 13 0 17 0;
#X connect 14 0 12 0;
#X connect 14 1 18 0;
#X connect 16 0 15 0;
#X connect 18 0 11 0;
#X connect 19 0 15 0;
#X connect 19 0 15 1;
